<?xml version="1.0" standalone="no"?>
<!DOCTYPE svg PUBLIC "-//W3C//DTD SVG 20010904//EN"
 "http://www.w3.org/TR/2001/REC-SVG-20010904/DTD/svg10.dtd">
<svg version="1.0" xmlns="http://www.w3.org/2000/svg"
 width="70.000000pt" height="70.000000pt" viewBox="0 0 70.000000 70.000000"
 preserveAspectRatio="xMidYMid meet">
<metadata>
Created by potrace 1.14, written by Peter Selinger 2001-2017
</metadata>
<g transform="translate(0.000000,70.000000) scale(0.100000,-0.100000)"
fill="#000000" stroke="none">
<path d="M266 627 c-67 -22 -150 -115 -162 -179 -1 -5 -3 -9 -4 -10 -4 -5 -10
-51 -11 -88 -3 -100 37 -176 134 -256 40 -33 155 -38 213 -8 48 24 107 78 97
88 -4 3 -2 6 4 6 11 0 46 83 47 115 1 11 5 25 8 31 4 6 5 22 1 35 -3 13 -5 34
-5 47 0 12 -3 22 -7 22 -4 0 -8 6 -8 14 0 22 -24 76 -34 76 -5 0 -9 5 -9 11 0
15 -57 67 -94 86 -36 19 -129 24 -170 10z"/>
</g>
</svg>
